# AST/ASF file generated using VICON BodyLanguage
# -----------------------------------------------
:version 1.10
:name VICON
:units
  mass 1.0
  length 0.45
  angle deg
:documentation
   .ast/.asf automatically generated from VICON data using
   VICON BodyBuilder and BodyLanguage model FoxedUp or BRILLIANT.MOD
:root
   order TX TY TZ RX RY RZ
   axis XYZ
   position 0 0 0  
   orientation 0 0 0 
:bonedata
  begin
     id 1 
     name lhipjoint
     direction 0.62366 -0.717238 0.310833 
     length 2.53602 
     axis 0 0 0  XYZ
  end
  begin
     id 2 
     name lfemur
     direction 0.34202 -0.939693 0  
     length 7.40817  
     axis 0 0 20  XYZ
    dof rx ry rz
    limits (-160.0 20.0)
           (-70.0 70.0)
           (-60.0 70.0)
  end
  begin
     id 3 
     name ltibia
     direction 0.34202 -0.939693 0   
     length 7.7045   
     axis 0 0 20   XYZ
    dof rx
    limits (-10.0 170.0)
  end
  begin
     id 4 
     name lfoot
     direction 0.0673888 -0.185149 0.980397   
     length 2.09456   
     axis -90 7.62852e-016 20   XYZ
    dof rx rz
    limits (-45.0 90.0)
           (-70.0 20.0)
  end
  begin
     id 5 
     name ltoes
     direction 1.53575e-011 -4.21994e-011 1   
     length 1.05543   
     axis -90 7.62852e-016 20   XYZ
    dof rx
    limits (-90.0 20.0)
  end
  begin
     id 6 
     name rhipjoint
     direction -0.489018 -0.800347 0.346851   
     length 2.27268  
     axis 0 0 0  XYZ 
  end
  begin
     id 7 
     name rfemur
     direction -0.34202 -0.939693 0   
     length 7.55487   
     axis 0 0 -20   XYZ
    dof rx ry rz
    limits (-160.0 20.0)
           (-70.0 70.0)
           (-70.0 60.0)
  end
  begin
     id 8 
     name rtibia
     direction -0.34202 -0.939693 0   
     length 7.78969   
     axis 0 0 -20   XYZ
    dof rx
    limits (-10.0 170.0)
 end
 begin
     id 9 
     name rfoot
     direction -0.0859318 -0.236096 0.967923   
     length 2.19143  
     axis -90 -7.62852e-016 -20   XYZ
    dof rx rz
    limits (-45.0 90.0)
           (-20.0 70.0)
  end
  begin
     id 10 
     name rtoes
     direction -1.53538e-011 -4.21989e-011 1   
     length 1.09845   
     axis -90 -7.62852e-016 -20   XYZ
    dof rx
    limits (-90.0 20.0)
  end
  begin
     id 11 
     name lowerback
     direction -0.00762546 0.998978 -0.0445553   
     length 1.98161   
     axis 0 0 0   XYZ
    dof rx ry rz
    limits (-20.0 45.0)
           (-30.0 30.0)
           (-30.0 30.0)
  end
  begin
     id 12 
     name upperback
     direction 0.0422361 0.998867 -0.0219156   
     length 1.97558   
     axis 0 0 0   XYZ
    dof rx ry rz
    limits (-20.0 45.0)
           (-30.0 30.0)
           (-30.0 30.0)
  end
  begin
     id 13 
     name thorax
     direction 0.0442465 0.999021 7.47603e-005   
     length 1.97799   
     axis 0 0 0   XYZ
    dof rx ry rz
    limits (-20.0 45.0)
           (-30.0 30.0)
           (-30.0 30.0)
  end
  begin
     id 14 
     name lowerneck
     direction 0.00312169 0.984641 0.174564   
     length 1.78995   
     axis 0 0 0   XYZ
    dof rx ry rz
    limits (-20.0 45.0)
           (-30.0 30.0)
           (-30.0 30.0)
  end
  begin
     id 15 
     name upperneck
     direction -0.0383028 0.985255 -0.166749   
     length 1.83053   
     axis 0 0 0   XYZ
    dof rx ry rz
    limits (-20.0 45.0)
           (-30.0 30.0)
           (-30.0 30.0)
  end
  begin
     id 16
     name head
     direction -0.0129546 0.997059 -0.0755386  
     length 1.84088  
     axis 0 0 0   XYZ
    dof rx ry rz
    limits (-20.0 45.0)
           (-30.0 30.0)
           (-30.0 30.0)
  end
  begin
     id 17 
     name lclavicle
     direction 0.912857 0.370519 -0.171488  
     length 3.51279  
     axis 0 0 0   XYZ
    dof ry rz
    limits (-20.0 10.0)
           (0.0 20.0)
  end
  begin
     id 18 
     name lhumerus
     direction 1 -4.48962e-011 3.64361e-027   
     length 4.95663   
     axis 180 -30 -90   XYZ
    dof rx ry rz
    limits (-60.0 90.0)
           (-90.0 90.0)
           (-90.0 90.0)
  end
  begin
     id 19
     name lradius
     direction 1 -4.48974e-011 5.97202e-027   
     length 3.38177   
     axis 180 -30 -90   XYZ
    dof rx
    limits (-10.0 170.0)
  end
  begin
     id 20
     name lwrist
     direction 1 -4.4896e-011 9.83288e-027   
     length 1.69088   
     axis -9.31221e-015 90 90   XYZ
    dof ry
    limits (-180.0 0.0)
 end
  begin
     id 21 
     name lhand
     direction 1 -4.4902e-011 1.96551e-026   
     length 0.662909   
     axis -1.25475e-014 90 90   XYZ
    dof rx rz
    limits (-90.0 90.0)
           (-45.0 45.0)
  end
  begin
     id 22 
     name lfingers
     direction 1 -4.48971e-011 3.93277e-026   
     length 0.534454   
     axis -2.50945e-014 90 90   XYZ
    dof rx
    limits (0.0 90.0)
  end
  begin
     id 23
     name lthumb
     direction 0.707107 -6.34933e-011 0.707107   
     length 0.767373   
     axis -90 45 -4.80359e-014   XYZ
    dof rx rz
    limits (-45.0 45.0)
           (-45.0 45.0)
  end
  begin
     id 24 
     name rclavicle
     direction -0.900919 0.395364 -0.178976   
     length 3.40627  
     axis 0 0 0   XYZ 
    dof ry rz
    limits (-10.0 20.0)
           (-20.0 0.0)
  end
  begin
     id 25 
     name rhumerus
     direction -1 -4.48969e-011 1.03875e-027  
     length 5.08365   
     axis 180 30 90   XYZ
    dof rx ry rz
    limits (-90.0 60.0)
           (-90.0 90.0)
           (-90.0 90.0)
  end
  begin
     id 26 
     name rradius
     direction -1 -4.48951e-011 5.02733e-027   
     length 3.35984   
     axis 180 30 90   XYZ
    dof rx
    limits (-10.0 170.0)
  end
  begin
     id 27 
     name rwrist
     direction -1 -4.49011e-011 9.82828e-027   
     length 1.67992   
     axis -9.31221e-015 -90 -90   XYZ
    dof ry
    limits (-180.0 0.0)
  end
  begin
     id 28
     name rhand
     direction -1 -4.48894e-011 1.96774e-026   
     length 0.820764   
     axis -1.25475e-014 -90 -90   XYZ
    dof rx rz
    limits (-90.0 90.0)
           (-45.0 45.0)
  end
  begin
     id 29
     name rfingers
     direction -1 -4.49095e-011 3.92833e-026   
     length 0.661721   
     axis -2.50945e-014 -90 -90   XYZ
    dof rx
    limits (0.0 90.0)
  end
  begin
     id 30
     name rthumb
     direction -0.707107 -6.34881e-011 0.707107   
     length 0.950103   
     axis -90 -45 4.80359e-014   XYZ
    dof rx rz
    limits (-45.0 45.0)
           (-45.0 45.0)
  end
:hierarchy
  begin
    root lhipjoint rhipjoint lowerback
    lhipjoint lfemur
    lfemur ltibia
    ltibia lfoot
    lfoot ltoes
    rhipjoint rfemur
    rfemur rtibia
    rtibia rfoot
    rfoot rtoes
    lowerback upperback
    upperback thorax
    thorax lowerneck lclavicle rclavicle
    lowerneck upperneck
    upperneck head
    lclavicle lhumerus
    lhumerus lradius
    lradius lwrist
    lwrist lhand lthumb
    lhand lfingers
    rclavicle rhumerus
    rhumerus rradius
    rradius rwrist
    rwrist rhand rthumb
    rhand rfingers
  end

#!OML:ASF I:\golf\golf\golf 2\Subject 1\2002-09-07\Subject1.ASF
:FULLY-SPECIFIED
:DEGREES
127
root -1.13456 17.9481 -7.01435 10.8098 3.55107 -1.63075
lowerback 0.249042 0.407435 -3.58841
upperback 3.13669 0.46902 5.29692
thorax 3.0406 0.0592041 7.57863
lowerneck -16.0593 0.670696 -0.515626
upperneck 41.4522 4.17497 -6.48545
head 18.5253 0.733285 -2.14387
rclavicle 5.96354e-015 1.74931e-014
rhumerus -23.5354 2.6623 -79.2005
rradius 25.3362
rwrist -8.29666
rhand -21.8423 16.0839
rfingers 7.12502
rthumb 4.56102 -13.847
lclavicle 5.96354e-015 1.74931e-014
lhumerus -24.8576 14.3377 85.0883
lradius 28.0756
lwrist 3.89665
lhand -10.5661 32.3404
lfingers 7.12502
lthumb 15.4385 61.7439
rfemur -15.7243 -4.04848 29.2914
rtibia 27.8315
rfoot -17.661 -12.7079
rtoes 15.3309
lfemur -33.6046 3.92815 -10.4818
ltibia 49.347
lfoot -9.26934 -5.52458
ltoes -17.0516
128
root -1.12793 17.9508 -6.99711 10.8707 3.63941 -1.54615
lowerback 0.423004 0.418422 -3.59224
upperback 3.16501 0.482842 5.22479
thorax 2.96961 0.0687672 7.50136
lowerneck -16.0596 0.685932 -0.485705
upperneck 41.4862 4.16635 -6.42554
head 18.5429 0.743009 -2.12365
rclavicle 9.14409e-015 3.18055e-015
rhumerus -23.293 2.73964 -79.3051
rradius 25.2853
rwrist -8.16142
rhand -22.072 16.174
rfingers 7.12502
rthumb 4.33923 -13.7615
lclavicle 9.14409e-015 3.18055e-015
lhumerus -24.9666 14.1842 85.0352
lradius 28.3189
lwrist 4.07753
lhand -10.4933 32.4804
lfingers 7.12502
lthumb 15.5085 61.8785
rfemur -15.7508 -4.09739 29.1873
rtibia 27.8641
rfoot -17.7492 -12.7002
rtoes 15.7185
lfemur -33.9826 4.05316 -10.691
ltibia 48.9382
lfoot -9.2613 -5.33008
ltoes -16.0296
129
root -1.1178 17.9521 -6.97757 10.9739 3.71574 -1.39002
lowerback 0.601551 0.329202 -3.76891
upperback 3.15965 0.362448 5.25979
thorax 2.88227 0.0058414 7.63778
lowerneck -16.0958 0.771754 -0.682011
upperneck 41.5379 4.36558 -6.39551
head 18.593 0.792884 -2.03681
rclavicle -9.93923e-015 -4.69132e-014
rhumerus -23.0412 3.30776 -79.3525
rradius 25.3647
rwrist -7.9865
rhand -22.1026 15.3735
rfingers 7.12502
rthumb 4.30966 -14.5626
lclavicle -9.93923e-015 -4.69132e-014
lhumerus -25.2274 14.492 85.0155
lradius 28.6039
lwrist 4.21291
lhand -10.4429 32.2784
lfingers 7.12502
lthumb 15.5571 61.6726
rfemur -15.7975 -4.15193 28.9872
rtibia 27.8717
rfoot -17.7437 -12.7439
rtoes 15.3579
lfemur -34.3545 4.14278 -10.9953
ltibia 48.4465
lfoot -9.13741 -5.02993
ltoes -14.6673
130
root -1.10746 17.9517 -6.9563 11.0018 3.84253 -1.3778
lowerback 0.733079 0.644425 -3.50572
upperback 3.02501 0.790482 4.93574
thorax 2.60258 0.245239 7.13723
lowerneck -15.6233 0.496311 -0.0715707
upperneck 41.6483 3.66004 -6.27445
head 18.4861 0.639665 -2.22941
rclavicle 5.56597e-015 -1.03368e-014
rhumerus -23.4352 2.08103 -79.4931
rradius 25.5698
rwrist -7.46916
rhand -21.7902 14.4267
rfingers 7.12502
rthumb 4.61131 -15.5031
lclavicle 5.56597e-015 -1.03368e-014
lhumerus -25.4591 13.132 84.8681
lradius 28.6953
lwrist 4.46085
lhand -10.5039 32.1834
lfingers 7.12502
lthumb 15.4984 61.5822
rfemur -15.7384 -4.16809 28.9554
rtibia 27.8464
rfoot -17.8302 -12.8879
rtoes 15.2023
lfemur -34.655 4.25699 -11.1333
ltibia 47.908
lfoot -8.94387 -4.75076
ltoes -13.6318
131
root -1.10001 17.9503 -6.93662 10.9932 4.01322 -1.4581
lowerback 0.850626 0.539507 -3.62587
upperback 3.24557 0.63981 5.18604
thorax 2.78729 0.151404 7.47648
lowerneck -16.0019 0.573171 -0.404272
upperneck 41.6052 3.94687 -6.35646
head 18.5835 0.682617 -2.15251
rclavicle -5.1684e-015 -1.27222e-014
rhumerus -22.7518 2.76745 -79.3077
rradius 25.624
rwrist -7.62884
rhand -21.8824 14.7223
rfingers 7.12502
rthumb 4.52228 -15.2095
lclavicle -5.1684e-015 -1.27222e-014
lhumerus -25.2097 13.7562 85.1301
lradius 28.7607
lwrist 4.41178
lhand -10.6467 32.423
lfingers 7.12502
lthumb 15.3608 61.8324
rfemur -15.6291 -4.11238 29.0518
rtibia 27.7742
rfoot -17.869 -13.1524
rtoes 15.0333
lfemur -34.9758 4.36992 -11.1392
ltibia 47.3293
lfoot -8.76358 -4.6141
ltoes -13.7534
132
root -1.09529 17.948 -6.91875 11.0469 4.23387 -1.61459
lowerback 0.986363 0.542036 -3.60145
upperback 3.31273 0.637105 5.33306
thorax 2.78076 0.147012 7.61979
lowerneck -16.0415 0.534825 -0.501611
upperneck 41.5433 3.9301 -6.37556
head 18.5551 0.659069 -2.14398
rclavicle 9.14409e-015 2.8625e-014
rhumerus -22.4156 3.12468 -79.2518
rradius 25.6939
rwrist -7.9365
rhand -22.3607 15.064
rfingers 7.12502
rthumb 4.06051 -14.877
lclavicle 9.14409e-015 2.8625e-014
lhumerus -25.1544 13.7843 85.3112
lradius 28.8376
lwrist 4.42605
lhand -10.6805 32.4631
lfingers 7.12502
lthumb 15.3282 61.875
rfemur -15.5688 -4.02798 29.2597
rtibia 27.6376
rfoot -17.6973 -13.4885
rtoes 13.9853
lfemur -35.4113 4.44195 -11.0341
ltibia 46.7092
lfoot -8.62554 -4.59107
ltoes -14.0934
